<?xml version="1.0" standalone="no"?>
<!DOCTYPE svg PUBLIC "-//W3C//DTD SVG 1.1//EN" "http://www.w3.org/Graphics/SVG/1.1/DTD/svg11.dtd">
<svg width="100%" height="100%" viewBox="0 0 233 249" version="1.1" xmlns="http://www.w3.org/2000/svg" xmlns:xlink="http://www.w3.org/1999/xlink" xml:space="preserve" style="fill-rule:evenodd;clip-rule:evenodd;stroke-linejoin:round;stroke-miterlimit:1.41421;">
    <g>
        <path d="M134.7,28.6L201.1,81C201.8,81.6 202.4,81.3 202.4,80.4L202.4,1.1C202.4,0.2 201.7,-0.3 200.9,0.1L135,26.9C134.1,27.3 134,28 134.7,28.6Z" style="fill:rgb(227,15,19);fill-rule:nonzero;"/>
        <path d="M230.9,106.6L203.9,119.1C203.1,119.5 201.8,119.3 201.1,118.8L99.7,42.1C99,41.5 97.7,41.4 96.9,41.8L1.6,83.7C0.7,84 0,85.1 0,86L0,170.9L7.9,170.9L7.9,155.2L29.7,155.2L29.7,170.9L44.1,170.9L44.1,188.4L29.7,188.4L29.7,209.4C29.7,213.8 31.6,215.6 35.7,215.6C38.6,215.6 41.3,214.8 43.9,213.5L43.9,230.6C40,232.8 34.8,234.2 28.8,234.2C15.7,234.2 8,228.5 8,213.7L8,188.5L0,188.5L0,246.8C0,247.7 0.7,248.5 1.7,248.5L55,248.5C53.3,247.8 51.6,247 50,246.1L56.8,230.9C60.2,233 63.9,234.2 66.3,234.2C68.5,234.2 70,233.6 71.3,231.7L47,170.6L69.8,170.6L82.1,208L93.8,170.7L116.1,170.7L93.4,231.2C90.2,239.9 86.8,245.4 81.9,248.4L230.7,248.4C231.6,248.4 232.4,247.7 232.4,246.7L232.4,107.5C232.4,106.6 231.8,106.2 230.9,106.6Z" style="fill:rgb(227,15,19);fill-rule:nonzero;"/>
    </g>
</svg>
