<?xml version="1.0" standalone="no"?>
<!DOCTYPE svg PUBLIC "-//W3C//DTD SVG 1.1//EN" "http://www.w3.org/Graphics/SVG/1.1/DTD/svg11.dtd">
<svg width="100%" height="100%" viewBox="0 0 198 84" version="1.1" xmlns="http://www.w3.org/2000/svg" xmlns:xlink="http://www.w3.org/1999/xlink" xml:space="preserve" style="fill-rule:evenodd;clip-rule:evenodd;stroke-linejoin:round;stroke-miterlimit:1.41421;">
    <g transform="matrix(1.06334,0,0,1.06334,-20.7338,34.7512)">
        <path d="M174.18,4.776C174.963,3.114 175.452,1.255 175.452,-0.701L175.452,-15.077C175.452,-22.119 169.779,-27.791 162.738,-27.791L107.97,-27.791L107.97,42.625L165.672,42.625C172.713,42.625 178.386,36.952 178.386,29.911L178.386,14.165C178.386,10.449 176.723,7.026 174.18,4.776ZM162.738,-17.229C163.911,-17.229 164.889,-16.251 164.889,-15.077L164.889,-0.701C164.889,0.473 163.911,1.451 162.738,1.451L120.684,1.451C119.51,1.451 118.532,0.473 118.532,-0.701L118.532,-15.077C118.532,-16.251 119.51,-17.229 120.684,-17.229L162.738,-17.229ZM167.823,29.911C167.823,31.084 166.845,32.062 165.672,32.062L120.684,32.062C119.51,32.062 118.532,31.084 118.532,29.911L118.532,14.165C118.532,12.991 119.51,12.013 120.684,12.013L165.672,12.013C166.845,12.013 167.823,12.991 167.823,14.165L167.823,29.911Z" style="fill:white;fill-rule:nonzero;"/>
    </g>
    <g transform="matrix(8.44196,0,0,8.70506,-106.005,-455.785)">
        <path d="M22.457,54.255L22.457,52.959L15.401,52.959C14.537,52.959 13.841,53.655 13.841,54.519L13.841,60.039C13.841,60.903 14.537,61.599 15.401,61.599L22.457,61.599L22.457,60.303L15.401,60.303C15.257,60.303 15.137,60.183 15.137,60.039L15.137,54.519C15.137,54.375 15.257,54.255 15.401,54.255L22.457,54.255Z" style="fill:white;fill-rule:nonzero;"/>
    </g>
    <g transform="matrix(1.03751e-17,-0.169438,0.177752,1.08842e-17,177.459,110.796)">
        <path d="M184.066,-0.419L184.066,69.997L241.768,69.997C248.809,69.997 254.482,64.325 254.482,57.283L254.482,12.295C254.482,5.254 248.809,-0.419 241.768,-0.419L184.066,-0.419ZM243.919,57.283C243.919,58.457 242.941,59.435 241.768,59.435L196.78,59.435C195.606,59.435 194.628,58.457 194.628,57.283L194.628,12.295C194.628,11.122 195.606,10.144 196.78,10.144L241.768,10.144C242.941,10.144 243.919,11.122 243.919,12.295L243.919,57.283Z" style="fill:white;fill-rule:nonzero;"/>
        <rect x="265.533" y="-0.419" width="10.562" height="70.416" style="fill:white;fill-rule:nonzero;"/>
        <path d="M357.367,12.295C357.367,5.254 351.695,-0.419 344.653,-0.419L299.665,-0.419C292.624,-0.419 286.951,5.254 286.951,12.295L286.951,57.283C286.951,64.325 292.624,69.997 299.665,69.997L344.653,69.997C351.695,69.997 357.367,64.325 357.367,57.283L357.367,31.464L330.179,31.464L330.179,42.026L346.805,42.026L346.805,57.283C346.805,58.457 345.827,59.435 344.653,59.435L299.665,59.435C298.492,59.435 297.514,58.457 297.514,57.283L297.514,12.295C297.514,11.122 298.492,10.144 299.665,10.144L344.653,10.144C345.827,10.144 346.805,11.122 346.805,12.295L346.805,16.501L357.367,16.501L357.367,12.295Z" style="fill:white;fill-rule:nonzero;"/>
        <rect x="368.223" y="-0.419" width="10.562" height="70.416" style="fill:white;fill-rule:nonzero;"/>
        <path d="M386.121,-0.419L386.121,10.144L416.047,10.144L416.047,69.997L426.61,69.997L426.61,10.144L456.537,10.144L456.537,-0.419L386.121,-0.419Z" style="fill:white;fill-rule:nonzero;"/>
        <path d="M476.781,-0.419C469.74,-0.419 464.067,5.254 464.067,12.295L464.067,69.997L474.63,69.997L474.63,45.352L523.921,45.352L523.921,69.997L534.483,69.997L534.483,12.295C534.483,5.254 528.811,-0.419 521.769,-0.419L476.781,-0.419ZM474.63,34.789L474.63,12.295C474.63,11.122 475.608,10.144 476.781,10.144L521.769,10.144C522.943,10.144 523.921,11.122 523.921,12.295L523.921,34.789L474.63,34.789Z" style="fill:white;fill-rule:nonzero;"/>
        <path d="M545.73,69.997L616.146,69.997L616.146,59.435L556.293,59.435L556.293,-0.517L545.73,-0.517L545.73,69.997Z" style="fill:white;fill-rule:nonzero;"/>
    </g>
</svg>
