<?xml version="1.0" encoding="UTF-8" standalone="no"?>
<!DOCTYPE svg PUBLIC "-//W3C//DTD SVG 1.1//EN" "http://www.w3.org/Graphics/SVG/1.1/DTD/svg11.dtd">
<svg width="100%" height="100%" viewBox="0 0 1626 650" version="1.1" xmlns="http://www.w3.org/2000/svg" xmlns:xlink="http://www.w3.org/1999/xlink" xml:space="preserve" xmlns:serif="http://www.serif.com/" style="fill-rule:evenodd;clip-rule:evenodd;stroke-linecap:round;stroke-linejoin:round;stroke-miterlimit:1.5;">
    <g transform="matrix(1,0,0,1,-0.0751221,0.5)">
        <g transform="matrix(1,0,0,1,-11.8988,-25.3142)">
            <path d="M13,674L1636.32,674C1636.32,674 1638.22,199.424 1636.9,99.088C1636.82,93.006 1635.56,87.313 1633.36,81.825C1632.1,78.674 1628.64,71.779 1627.08,68.729C1624.58,63.829 1623.86,62.577 1620.2,58.049C1617.62,54.848 1614.49,50.861 1611.88,47.874C1606.14,41.281 1602.21,39.228 1592.91,35.417C1589.41,33.982 1581.53,32.23 1578.25,31.964C1574.81,31.686 1569.17,30.907 1564.38,30.843C1351.47,28.013 489.061,30.554 489.061,30.554L488.393,25.758L397.869,25.375L397.986,29.597L379.626,29.648L379.765,25.314L287.71,25.468L287.889,30.363C287.889,30.363 128.726,30.393 89.261,30.161C87.665,30.151 70.601,31.521 68.974,31.85C62.164,33.224 56.94,35.947 51.905,38.441C46.681,41.028 41.773,44.909 37.922,48.547C34.408,51.866 31.223,56.297 28.691,59.73C26.487,62.72 24.515,65.887 22.734,69.146C20.621,73.014 17.631,78.271 16.01,82.937C14.421,87.51 12.654,93.138 12.629,97.979C12.128,196.489 13,674 13,674Z" style="fill:rgb(40,38,45);stroke:black;stroke-width:1px;"/>
        </g>
        <g transform="matrix(1.29496,0,0,1.0984,-43.1201,-83.5277)">
            <ellipse cx="96.357" cy="576.656" rx="5.792" ry="6.828" style="fill:rgb(31,31,31);stroke:rgb(37,37,37);stroke-width:3.33px;"/>
        </g>
        <g transform="matrix(1,0,0,1,-11.8988,-25.3142)">
            <path d="M1490.64,673.952L1488.91,76.345L166.969,76.08L165.818,673.96" style="fill:rgb(13,13,13);stroke:black;stroke-width:1px;"/>
        </g>
        <g transform="matrix(1,0,0,1,-10.8988,-25.3142)">
            <path d="M166.421,168.929L1488.1,164.761L166.421,168.929Z" style="fill:rgb(13,13,13);stroke:black;stroke-width:4px;"/>
        </g>
        <g transform="matrix(1.20546,0,0,1.16505,-339.399,-126.832)">
            <ellipse cx="1562.94" cy="581.193" rx="33.182" ry="34.333" style="fill:rgb(20,17,17);"/>
        </g>
        <g transform="matrix(1.00475,0,0,1.02933,-19.2153,-42.751)">
            <path d="M1571.1,560.47L1570.82,589.349L1541.24,589.498L1541.27,560.353L1571.1,560.47Z" style="fill:none;stroke:rgb(37,37,37);stroke-width:3.93px;"/>
        </g>
    </g>
</svg>
